<svg xmlns="http://www.w3.org/2000/svg" viewBox="0 0 100 100" width="100" height="100">

  <rect width="100" height="100" rx="20" fill="#1A2332"/>

  <!-- P -->
  <rect x="14" y="22" width="9"  height="56" rx="2.5" fill="#FFFFFF"/>
  <rect x="23" y="22" width="16" height="9"  rx="2.5" fill="#FFFFFF"/>
  <rect x="30" y="22" width="9"  height="29" rx="2.5" fill="#FFFFFF"/>
  <rect x="23" y="40" width="16" height="9"  rx="2.5" fill="#FFFFFF"/>

  <!-- F -->
  <rect x="52" y="22" width="9"  height="56" rx="2.5" fill="#FFFFFF"/>
  <rect x="61" y="22" width="25" height="9"  rx="2.5" fill="#FFFFFF"/>
  <rect x="61" y="40" width="19" height="9"  rx="2.5" fill="#FFFFFF"/>

  <!-- Green arc -->
  <path d="M 14,68 C 14,84 86,84 86,68"
        fill="none" stroke="#10B981" stroke-width="5"
        stroke-linecap="round"/>

  <circle cx="14" cy="68" r="4" fill="#10B981"/>
  <circle cx="86" cy="68" r="4" fill="#10B981"/>

  <!-- Diamond -->
  <rect x="44" y="17" width="10" height="10" rx="2"
        fill="#10B981" transform="rotate(45 49 22)"/>

</svg>
